#N canvas 267 72 1076 586 12;
#X obj 573 126 r \$0-ctr-pan;
#X obj 573 175 s \$0-pan;
#X msg 573 151 5;
#X floatatom 106 76 3 0 100 0 - #0-lvl-set #0-lvl;
#X obj 59 92 bng 15 250 50 0 \$0-mute \$0-mute-set empty 0 0 0 12 -262144
-1 -1;
#X obj 34 160 hsl 40 15 1 9 0 0 \$0-pan \$0-pan-set empty 0 0 0 10
-262144 -1 -1 1950 1;
#X obj 49 175 bng 12 250 50 0 \$0-ctr-pan \$0-ctr-pan-set empty 0 0
0 12 -262144 -1 -1;
#X obj 107 101 vu 8 80 \$0-vu1 empty -1 -8 0 10 -66577 -1 0 0;
#X obj 122 101 vu 8 80 \$0-vu2 empty -1 -8 0 10 -66577 -1 0 0;
#X floatatom 98 187 2 1 99 0 - #0-ch1-set #0-ch1;
#X floatatom 119 187 2 1 99 0 - #0-ch2-set #0-ch2;
#X obj 87 78 vsl 15 101 0 100 0 0 \$0-lvl \$0-lvl-set empty 0 -9 0
10 -262144 -1 -1 0 1;
#X floatatom 98 54 2 1 99 0 - #0-ich1-set #0-ich1;
#X floatatom 119 54 2 1 99 0 - #0-ich2-set #0-ich2;
#X obj 59 70 tgl 15 0 \$0-mono \$0-mono-set empty 17 7 0 10 -262144
-1 -1 0 1;
#X obj 73 124 bng 12 250 50 0 \$0-ctr-gain \$0-ctr-gain-set empty 0
0 0 12 -262144 -1 -1;
#X obj 570 40 r \$0-ctr-gain;
#X msg 570 64 50;
#X obj 570 88 s \$0-lvl;
#X text 41 142 Pan;
#X text 22 120 Gain-->;
#X text 25 90 Mute;
#X text 26 70 Mono;
#X text 24 54 In ch.-->;
#X text 23 187 Out ch.-->;
#X text 22 108 Normal;
#X obj 26 38 tgl 15 0 \$0-onoff \$0-onoff-set empty 17 7 0 10 -262144
-1 -1 0 1;
#X text 43 35 ON/OFF;
#X obj 54 418 s \$0-pan;
#X obj 19 452 s \$0-lvl;
#X obj 93 391 s \$0-mono;
#X obj 240 485 s \$0-ich1;
#X obj 259 443 s \$0-ich2;
#X obj 151 491 s \$0-ch1;
#X obj 171 445 s \$0-ch2;
#X obj 329 415 s \$0-onoff;
#X obj 364 31 r \$0-out;
#X obj 740 140 t b;
#X obj 740 87 f;
#X obj 740 165 f;
#X msg 854 164 0;
#X obj 740 117 moses 1;
#X obj 854 136 t b f;
#X obj 820 97 moses 1;
#X obj 819 68 r \$0-lvl;
#X obj 740 191 s \$0-lvl;
#X obj 740 60 r \$0-mute;
#X text 760 28 MUTE logic;
#X obj 362 91 list trim;
#X obj 362 115 s \$2-netsend;
#X obj 364 62 list prepend send \$1;
#X obj 225 27 r \$2-input;
#X obj 225 71 route \$1;
#X obj 258 196 s \$0-vu1;
#X obj 327 197 s \$0-vu2;
#X obj 752 259 store \$1 \$2 lvl 0 \$0;
#X obj 752 279 store \$1 \$2 pan 1 \$0;
#X obj 750 297 store \$1 \$2 mono 2 \$0;
#X obj 750 317 store \$1 \$2 ch1 3 \$0;
#X obj 748 339 store \$1 \$2 ch2 4 \$0;
#X obj 750 360 store \$1 \$2 ich1 5 \$0;
#X obj 748 382 store \$1 \$2 ich2 6 \$0;
#X obj 747 401 store \$1 \$2 onoff 7 \$0;
#X obj 235 124 route vu1 vu2;
#X obj 52 268 bng 15 250 50 0 empty empty empty 17 7 0 10 -262144 -1
-1;
#X obj 54 323 text get \$2-store;
#X obj 53 295 f \$1;
#X obj 49 352 unpack f f f f f f f f, f 43;
#X obj 91 258 r \$2-recall;
#X connect 0 0 2 0;
#X connect 2 0 1 0;
#X connect 16 0 17 0;
#X connect 17 0 18 0;
#X connect 36 0 50 0;
#X connect 37 0 39 0;
#X connect 38 0 41 0;
#X connect 39 0 45 0;
#X connect 40 0 45 0;
#X connect 41 0 37 0;
#X connect 41 1 42 0;
#X connect 42 0 40 0;
#X connect 43 1 39 1;
#X connect 44 0 38 1;
#X connect 44 0 43 0;
#X connect 46 0 38 0;
#X connect 48 0 49 0;
#X connect 50 0 48 0;
#X connect 51 0 52 0;
#X connect 52 0 63 0;
#X connect 63 0 53 0;
#X connect 63 1 54 0;
#X connect 64 0 66 0;
#X connect 65 0 67 0;
#X connect 66 0 65 0;
#X connect 67 0 29 0;
#X connect 67 1 28 0;
#X connect 67 2 30 0;
#X connect 67 3 33 0;
#X connect 67 4 34 0;
#X connect 67 5 31 0;
#X connect 67 6 32 0;
#X connect 67 7 35 0;
#X connect 68 0 64 0;
#X coords 0 -1 1 1 120 190 1 20 20;
