#N canvas 202 0 1071 741 12;
#X obj 496 304 line~;
#X obj 446 349 *~;
#X obj 315 193 hip~ 3;
#X obj 838 146 r \$0-lvl;
#X obj 837 173 f;
#X obj 497 30 r \$0-pan;
#X obj 496 264 pack 0 30, f 5;
#X obj 190 41 r \$0-ctr-pan;
#X obj 497 55 f;
#X obj 497 80 - 5;
#X obj 497 105 * 0.25;
#X obj 190 90 s \$0-pan;
#X obj 837 198 max 0;
#X obj 497 156 expr 1.5*$f1-0.5*($f1*$f1*$f1);
#X obj 497 130 clip -1 1;
#X obj 678 192 expr 0.5*($f1+1);
#X obj 496 209 expr 0.5*(1-$f1);
#X obj 554 329 line~;
#X obj 492 348 *~;
#X obj 554 289 pack 0 30, f 5;
#X obj 616 345 line~;
#X obj 616 305 pack 0 30, f 5;
#X obj 447 378 *~;
#X obj 497 181 t f f;
#X obj 355 512 abs~;
#X obj 355 537 slop~ 0 0 0.3 0 1e+09;
#X obj 357 585 snapshot~;
#X obj 357 610 rmstodb;
#X obj 357 635 moses 1;
#X msg 358 670 -100;
#X obj 405 665 - 88;
#X msg 190 66 5;
#X obj 367 191 hip~ 3;
#X obj 492 380 *~;
#X obj 680 514 loadbang;
#X obj 513 509 abs~;
#X obj 513 534 slop~ 0 0 0.3 0 1e+09;
#X obj 514 583 snapshot~;
#X obj 514 608 rmstodb;
#X obj 514 633 moses 1;
#X msg 515 668 -100;
#X obj 562 663 - 88;
#X obj 356 706 s \$0-vu1;
#X obj 513 704 s \$0-vu2;
#X obj 835 226 expr pow($f1*0.02 \, 4);
#X obj 616 443 r \$0-ch1;
#X obj 395 513 dac~ 1;
#X obj 552 509 dac~ 2;
#X msg 616 468 set \$1;
#X msg 679 469 set \$1;
#X obj 679 444 r \$0-ch2;
#X obj 408 237 r \$0-mono;
#X obj 371 242 -~;
#X obj 408 262 * 0.5;
#X obj 371 267 *~ 0;
#X obj 311 301 -~;
#X obj 358 299 +~;
#X floatatom 579 393 5 0 0 0 - - -;
#X floatatom 635 391 5 0 0 0 - - -;
#X obj 497 236 expr $f1 + 0.25*($f1*$f2);
#X obj 553 262 expr $f2 + 0.25*($f1*$f2);
#X obj 315 171 adc~ 1;
#X obj 367 169 adc~ 2;
#X msg 364 140 set \$1;
#X msg 434 139 set \$1;
#X obj 364 115 r \$0-ich1;
#X obj 434 114 r \$0-ich2;
#X obj 735 66 r \$0-ctr-gain;
#X msg 735 90 50;
#X obj 735 114 s \$0-lvl;
#N canvas 0 22 495 561 switch 0;
#X obj 37 37 inlet;
#X obj 65 153 sel 0 1;
#X msg 273 276 1;
#X obj 236 240 t b b;
#X obj 102 376 line~;
#X obj 136 279 t b b;
#X msg 197 299 0;
#X obj 65 187 t b b;
#X msg 65 232 0;
#X obj 273 325 outlet switch;
#X obj 102 418 outlet~;
#X obj 65 129 change;
#X obj 65 98 route float bang;
#X obj 136 310 del 1;
#X obj 136 335 pack 1 3;
#X obj 65 210 del 4;
#X obj 102 236 pack 0 3;
#X connect 0 0 12 0;
#X connect 1 0 7 0;
#X connect 1 1 3 0;
#X connect 2 0 9 0;
#X connect 3 0 5 0;
#X connect 3 1 2 0;
#X connect 4 0 10 0;
#X connect 5 0 13 0;
#X connect 5 1 6 0;
#X connect 6 0 4 0;
#X connect 7 0 15 0;
#X connect 7 1 16 0;
#X connect 8 0 9 0;
#X connect 11 0 1 0;
#X connect 12 0 11 0;
#X connect 13 0 14 0;
#X connect 14 0 4 0;
#X connect 15 0 8 0;
#X connect 16 0 4 0;
#X restore 757 403 pd switch;
#X obj 859 624 switch~;
#X obj 442 426 *~;
#X obj 543 425 *~;
#X msg 779 305 1 \; pd dsp 1;
#X obj 779 343 s \$0-switch-set;
#X obj 783 573 sel;
#X obj 783 597 del 10;
#X obj 63 342 route pan lvl mono mute ctr-pan ctr-lvl ich1 ich2 ch1
ch2 onoff, f 23;
#X obj 64 403 s \$0-pan;
#X obj 69 431 s \$0-lvl;
#X obj 80 456 s \$0-mono;
#X obj 85 484 s \$0-mute;
#X obj 136 407 s \$0-ctr-pan;
#X obj 141 435 s \$0-ctr-lvl;
#X obj 152 460 s \$0-ich1;
#X obj 157 488 s \$0-ich2;
#X obj 238 457 s \$0-ch1;
#X obj 243 485 s \$0-ch2;
#X obj 255 412 s \$0-onoff;
#X obj 757 379 r \$0-onoff;
#X obj 759 494 t f f f;
#X obj 63 254 inlet;
#X obj 104 39 loadbang;
#X obj 106 72 f \$1;
#X obj 106 96 t f f;
#X obj 136 119 - 1;
#X obj 106 120 +;
#X obj 106 144 t f f;
#X obj 137 176 + 1;
#X obj 114 203 s \$0-ich2;
#X obj 20 202 s \$0-ich1;
#X msg 903 458 vu1 \$1;
#X msg 960 460 vu2 \$1;
#X obj 938 429 r \$0-vu2;
#X obj 857 431 r \$0-vu1;
#X obj 933 537 s \$2-netreceive;
#X obj 934 488 list prepend send \$1;
#X obj 933 512 list trim;
#X obj 679 542 metro 500;
#X connect 0 0 1 1;
#X connect 1 0 22 0;
#X connect 2 0 55 0;
#X connect 2 0 52 0;
#X connect 3 0 4 0;
#X connect 4 0 12 0;
#X connect 5 0 8 0;
#X connect 6 0 0 0;
#X connect 7 0 31 0;
#X connect 8 0 9 0;
#X connect 9 0 10 0;
#X connect 10 0 14 0;
#X connect 12 0 44 0;
#X connect 13 0 23 0;
#X connect 14 0 13 0;
#X connect 14 0 74 0;
#X connect 15 0 59 1;
#X connect 15 0 60 1;
#X connect 16 0 59 0;
#X connect 16 0 60 0;
#X connect 17 0 18 1;
#X connect 18 0 33 0;
#X connect 19 0 17 0;
#X connect 20 0 22 1;
#X connect 20 0 33 1;
#X connect 21 0 20 0;
#X connect 22 0 24 0;
#X connect 22 0 72 0;
#X connect 23 0 16 0;
#X connect 23 1 15 0;
#X connect 24 0 25 0;
#X connect 25 0 26 0;
#X connect 26 0 27 0;
#X connect 27 0 28 0;
#X connect 28 0 29 0;
#X connect 28 1 30 0;
#X connect 29 0 42 0;
#X connect 30 0 42 0;
#X connect 31 0 11 0;
#X connect 32 0 56 0;
#X connect 32 0 52 1;
#X connect 33 0 35 0;
#X connect 33 0 73 0;
#X connect 34 0 109 0;
#X connect 35 0 36 0;
#X connect 36 0 37 0;
#X connect 37 0 38 0;
#X connect 38 0 39 0;
#X connect 39 0 40 0;
#X connect 39 1 41 0;
#X connect 40 0 43 0;
#X connect 41 0 43 0;
#X connect 44 0 21 0;
#X connect 44 0 74 0;
#X connect 45 0 48 0;
#X connect 48 0 46 0;
#X connect 49 0 47 0;
#X connect 50 0 49 0;
#X connect 51 0 53 0;
#X connect 52 0 54 0;
#X connect 53 0 54 1;
#X connect 54 0 56 1;
#X connect 54 0 55 1;
#X connect 55 0 1 0;
#X connect 56 0 18 0;
#X connect 59 0 6 0;
#X connect 59 0 57 0;
#X connect 60 0 19 0;
#X connect 60 0 58 0;
#X connect 61 0 2 0;
#X connect 62 0 32 0;
#X connect 63 0 61 0;
#X connect 64 0 62 0;
#X connect 65 0 63 0;
#X connect 66 0 64 0;
#X connect 67 0 68 0;
#X connect 68 0 69 0;
#X connect 70 0 73 1;
#X connect 70 0 72 1;
#X connect 70 1 91 0;
#X connect 72 0 46 0;
#X connect 73 0 47 0;
#X connect 74 0 75 0;
#X connect 76 0 77 0;
#X connect 77 0 40 0;
#X connect 77 0 29 0;
#X connect 78 0 79 0;
#X connect 78 1 80 0;
#X connect 78 2 81 0;
#X connect 78 3 82 0;
#X connect 78 4 83 0;
#X connect 78 5 84 0;
#X connect 78 6 85 0;
#X connect 78 7 86 0;
#X connect 78 8 87 0;
#X connect 78 9 88 0;
#X connect 78 10 89 0;
#X connect 90 0 70 0;
#X connect 91 0 109 0;
#X connect 91 1 76 0;
#X connect 91 2 71 0;
#X connect 92 0 78 0;
#X connect 93 0 94 0;
#X connect 93 0 31 0;
#X connect 94 0 95 0;
#X connect 95 0 97 0;
#X connect 95 1 96 0;
#X connect 96 0 97 1;
#X connect 97 0 98 0;
#X connect 98 0 101 0;
#X connect 98 1 99 0;
#X connect 99 0 100 0;
#X connect 102 0 107 0;
#X connect 103 0 107 0;
#X connect 104 0 103 0;
#X connect 105 0 102 0;
#X connect 107 0 108 0;
#X connect 108 0 106 0;
#X connect 109 0 26 0;
#X connect 109 0 37 0;
#X coords 0 741 1 740 120 190 0;
