#N canvas 833 0 442 283 12;
#X text 186 15 PdMixer;
#X text 53 43 A 12 stereo channel mixer for jack using Netty McNetface's
logic, f 46;
#X obj 175 158 clone -s 1 input 12 \$0;
#N canvas 0 22 450 300 netreceive 0;
#X obj 52 19 loadbang;
#X msg 52 43 read pdmixer-network.txt \, bang;
#X obj 52 67 text;
#X obj 52 91 t b p;
#X msg 52 115 0;
#X obj 52 139 text get -s text t;
#X msg 52 163 listen \$2;
#X obj 52 224 netreceive 10499;
#X obj 67 195 r \$0-netreceive;
#X obj 52 248 outlet;
#X connect 0 0 1 0;
#X connect 1 0 2 0;
#X connect 2 0 3 0;
#X connect 3 0 4 0;
#X connect 3 1 5 3;
#X connect 4 0 5 0;
#X connect 5 0 6 0;
#X connect 6 0 7 0;
#X connect 7 0 9 0;
#X connect 8 0 7 0;
#X restore 175 122 pd netreceive;
#X connect 3 0 2 0;
