#N canvas 504 0 450 300 12;
#X msg 50 78 set \$1;
#X obj 33 152 list prepend \$3;
#X text 53 54 reflect gui;
#X text 42 181 send to server;
#X floatatom 199 124 5 0 0 0 - - -;
#X floatatom 149 48 5 0 0 0 - - -;
#X obj 201 197 text set \$2-store;
#X obj 239 121 loadbang;
#X obj 239 145 f \$1;
#X obj 307 146 f \$4;
#X obj 46 8 r \$5-\$3;
#X obj 50 103 s \$5-\$3-set;
#X obj 33 244 s \$5-out;
#X connect 0 0 11 0;
#X connect 1 0 12 0;
#X connect 4 0 6 0;
#X connect 7 0 8 0;
#X connect 7 0 9 0;
#X connect 8 0 6 1;
#X connect 9 0 6 2;
#X connect 10 0 0 0;
#X connect 10 0 1 0;
#X connect 10 0 5 0;
#X connect 10 0 6 0;
